<svg width="36" height="42" viewBox="0 0 36 42" role="img" preserveAspectRatio="xMidYMid meet" xmlns="http://www.w3.org/2000/svg"><title>David LaBar Studio</title><desc>A bold, minimalist logo design featuring a central square surrounded by nested geometric shapes, forming a balanced and intricate pattern. The clean symmetry and modern aesthetic reflect professionalism and creativity</desc><g id="davidlabar-logo"><path id="davidlabar-logo_core" d="M 14.000005,13.999999 V 22 h 7.999994 V 13.999999 Z M 28.999998,7.0000002 h -9 v 3.9999988 l 5.000001,4e-6 V 25 h -4.999998 v 3.999999 h 8.999997 z M 7.0000029,28.999999 H 15.999999 V 25 H 11.000002 V 10.999999 h 4.999997 V 7.0000002 H 7.0000029 Z m 28.9999971,7 v -16 h -4.000002 v 11.999998 l -27.9999951,4e-6 -3.8e-6,-12.000002 H 3.9437661e-7 V 36.000003 Z M -4.2531519e-7,0 3.9437661e-7,16 H 3.9999991 V 4.0000002 H 31.999998 V 16 H 36 l -10e-7,-16 z" /><path id="davidlabar-logo_bar" d="m 1.1821753e-6,39.000003 v 3 H 35.999999 v -3 z" /></g></svg>
